<svg width="432" height="80" viewBox="0 0 432 80" fill="none" xmlns="http://www.w3.org/2000/svg">
<g clip-path="url(#clip0_11_11)">
<path d="M80.1348 72.2188H0.134766V79.9999H80.1348V72.2188Z" fill="#665AEF"/>
<path d="M80.1348 72.2188H0.134766V79.9999H80.1348V72.2188Z" fill="url(#paint0_linear_11_11)" fill-opacity="0.08"/>
<path d="M61.1313 31.0898H19.1387L30.7214 6.01721C34.4313 -2.01095 45.8387 -2.01095 49.5485 6.01721L61.1313 31.0898Z" fill="#665AEF"/>
<path d="M61.1313 31.0898H19.1387L30.7214 6.01721C34.4313 -2.01095 45.8387 -2.01095 49.5485 6.01721L61.1313 31.0898Z" fill="url(#paint1_linear_11_11)" fill-opacity="0.12"/>
<path d="M80.1348 72.2187H0.134766L19.1385 31.0898H61.1311L80.1348 72.2187Z" fill="#D6D3FF"/>
<path d="M80.1348 72.2187H0.134766L19.1385 31.0898H61.1311L80.1348 72.2187Z" fill="url(#paint2_linear_11_11)" fill-opacity="0.4"/>
</g>
<path d="M124.321 17.5601C129.014 17.5601 133.131 18.4774 136.673 20.3121C140.257 22.1467 143.009 24.7707 144.929 28.1841C146.891 31.5547 147.873 35.4801 147.873 39.9601C147.873 44.4401 146.891 48.3654 144.929 51.7361C143.009 55.0641 140.257 57.6454 136.673 59.4801C133.131 61.3147 129.014 62.2321 124.321 62.2321H108.705V17.5601H124.321ZM124.001 54.6161C128.694 54.6161 132.321 53.3361 134.881 50.7761C137.441 48.2161 138.721 44.6107 138.721 39.9601C138.721 35.3094 137.441 31.6827 134.881 29.0801C132.321 26.4347 128.694 25.1121 124.001 25.1121H117.665V54.6161H124.001Z" fill="#150F27"/>
<path d="M187.54 43.7361C187.54 45.0161 187.454 46.1681 187.284 47.1921H161.364C161.577 49.7521 162.473 51.7574 164.052 53.2081C165.63 54.6587 167.572 55.3841 169.876 55.3841C173.204 55.3841 175.572 53.9547 176.98 51.0961H186.644C185.62 54.5094 183.657 57.3254 180.756 59.5441C177.854 61.7201 174.292 62.8081 170.068 62.8081C166.654 62.8081 163.582 62.0614 160.852 60.5681C158.164 59.0321 156.052 56.8774 154.516 54.1041C153.022 51.3307 152.276 48.1307 152.276 44.5041C152.276 40.8347 153.022 37.6134 154.516 34.8401C156.009 32.0667 158.1 29.9334 160.788 28.4401C163.476 26.9467 166.569 26.2001 170.068 26.2001C173.438 26.2001 176.446 26.9254 179.092 28.3761C181.78 29.8267 183.849 31.8961 185.3 34.5841C186.793 37.2294 187.54 40.2801 187.54 43.7361ZM178.26 41.1761C178.217 38.8721 177.385 37.0374 175.764 35.6721C174.142 34.2641 172.158 33.5601 169.812 33.5601C167.593 33.5601 165.716 34.2427 164.18 35.6081C162.686 36.9307 161.769 38.7867 161.428 41.1761H178.26Z" fill="#150F27"/>
<path d="M207.648 62.8081C204.746 62.8081 202.144 62.2961 199.84 61.2721C197.536 60.2054 195.701 58.7761 194.336 56.9841C193.013 55.1921 192.288 53.2081 192.16 51.0321H201.184C201.354 52.3974 202.016 53.5281 203.168 54.4241C204.362 55.3201 205.834 55.7681 207.584 55.7681C209.29 55.7681 210.613 55.4267 211.552 54.7441C212.533 54.0614 213.024 53.1867 213.024 52.1201C213.024 50.9681 212.426 50.1147 211.232 49.5601C210.08 48.9627 208.224 48.3227 205.664 47.6401C203.018 47.0001 200.842 46.3387 199.136 45.6561C197.472 44.9734 196.021 43.9281 194.784 42.5201C193.589 41.1121 192.992 39.2134 192.992 36.8241C192.992 34.8614 193.546 33.0694 194.656 31.4481C195.808 29.8267 197.429 28.5467 199.52 27.6081C201.653 26.6694 204.149 26.2001 207.008 26.2001C211.232 26.2001 214.602 27.2667 217.12 29.4001C219.637 31.4907 221.024 34.3281 221.28 37.9121H212.704C212.576 36.5041 211.978 35.3947 210.912 34.5841C209.888 33.7307 208.501 33.3041 206.752 33.3041C205.13 33.3041 203.872 33.6027 202.976 34.2001C202.122 34.7974 201.696 35.6294 201.696 36.6961C201.696 37.8907 202.293 38.8081 203.488 39.4481C204.682 40.0454 206.538 40.6641 209.056 41.3041C211.616 41.9441 213.728 42.6054 215.392 43.2881C217.056 43.9707 218.485 45.0374 219.68 46.4881C220.917 47.8961 221.557 49.7734 221.6 52.1201C221.6 54.1681 221.024 56.0027 219.872 57.6241C218.762 59.2454 217.141 60.5254 215.008 61.4641C212.917 62.3601 210.464 62.8081 207.648 62.8081Z" fill="#150F27"/>
<path d="M249.947 62.2321L237.915 47.1281V62.2321H228.955V14.8721H237.915V41.8161L249.819 26.7761H261.467L245.851 44.5681L261.595 62.2321H249.947Z" fill="#150F27"/>
<path d="M275.29 14.8721V62.2321H266.33V14.8721H275.29Z" fill="#150F27"/>
<path d="M281.838 44.3761C281.838 40.7921 282.542 37.6134 283.95 34.8401C285.401 32.0667 287.342 29.9334 289.774 28.4401C292.249 26.9467 295.001 26.2001 298.03 26.2001C300.675 26.2001 302.979 26.7334 304.942 27.8001C306.947 28.8667 308.547 30.2107 309.742 31.8321V26.7761H318.766V62.2321H309.742V57.0481C308.59 58.7121 306.99 60.0987 304.942 61.2081C302.937 62.2747 300.611 62.8081 297.966 62.8081C294.979 62.8081 292.249 62.0401 289.774 60.5041C287.342 58.9681 285.401 56.8134 283.95 54.0401C282.542 51.2241 281.838 48.0027 281.838 44.3761ZM309.742 44.5041C309.742 42.3281 309.315 40.4721 308.462 38.9361C307.609 37.3574 306.457 36.1627 305.006 35.3521C303.555 34.4987 301.998 34.0721 300.334 34.0721C298.67 34.0721 297.134 34.4774 295.726 35.2881C294.318 36.0987 293.166 37.2934 292.27 38.8721C291.417 40.4081 290.99 42.2427 290.99 44.3761C290.99 46.5094 291.417 48.3867 292.27 50.0081C293.166 51.5867 294.318 52.8027 295.726 53.6561C297.177 54.5094 298.713 54.9361 300.334 54.9361C301.998 54.9361 303.555 54.5307 305.006 53.7201C306.457 52.8667 307.609 51.6721 308.462 50.1361C309.315 48.5574 309.742 46.6801 309.742 44.5041Z" fill="#150F27"/>
<path d="M371.549 26.2641C375.901 26.2641 379.4 27.6081 382.045 30.2961C384.733 32.9414 386.077 36.6534 386.077 41.4321V62.2321H377.117V42.6481C377.117 39.8747 376.413 37.7627 375.005 36.3121C373.597 34.8187 371.677 34.0721 369.245 34.0721C366.813 34.0721 364.872 34.8187 363.421 36.3121C362.013 37.7627 361.309 39.8747 361.309 42.6481V62.2321H352.349V42.6481C352.349 39.8747 351.645 37.7627 350.237 36.3121C348.829 34.8187 346.909 34.0721 344.477 34.0721C342.002 34.0721 340.04 34.8187 338.589 36.3121C337.181 37.7627 336.477 39.8747 336.477 42.6481V62.2321H327.517V26.7761H336.477V31.0641C337.629 29.5707 339.101 28.3974 340.893 27.5441C342.728 26.6907 344.733 26.2641 346.909 26.2641C349.682 26.2641 352.157 26.8614 354.333 28.0561C356.509 29.2081 358.194 30.8721 359.389 33.0481C360.541 31.0001 362.205 29.3574 364.381 28.1201C366.6 26.8827 368.989 26.2641 371.549 26.2641Z" fill="#150F27"/>
<path d="M403.54 31.8961C404.692 30.2747 406.27 28.9307 408.276 27.8641C410.324 26.7547 412.649 26.2001 415.252 26.2001C418.281 26.2001 421.012 26.9467 423.444 28.4401C425.918 29.9334 427.86 32.0667 429.268 34.8401C430.718 37.5707 431.444 40.7494 431.444 44.3761C431.444 48.0027 430.718 51.2241 429.268 54.0401C427.86 56.8134 425.918 58.9681 423.444 60.5041C421.012 62.0401 418.281 62.8081 415.252 62.8081C412.649 62.8081 410.345 62.2747 408.34 61.2081C406.377 60.1414 404.777 58.7974 403.54 57.1761V79.1281H394.58V26.7761H403.54V31.8961ZM422.292 44.3761C422.292 42.2427 421.844 40.4081 420.948 38.8721C420.094 37.2934 418.942 36.0987 417.492 35.2881C416.084 34.4774 414.548 34.0721 412.884 34.0721C411.262 34.0721 409.726 34.4987 408.276 35.3521C406.868 36.1627 405.716 37.3574 404.82 38.9361C403.966 40.5147 403.54 42.3707 403.54 44.5041C403.54 46.6374 403.966 48.4934 404.82 50.0721C405.716 51.6507 406.868 52.8667 408.276 53.7201C409.726 54.5307 411.262 54.9361 412.884 54.9361C414.548 54.9361 416.084 54.5094 417.492 53.6561C418.942 52.8027 420.094 51.5867 420.948 50.0081C421.844 48.4294 422.292 46.5521 422.292 44.3761Z" fill="#150F27"/>
<defs>
<linearGradient id="paint0_linear_11_11" x1="40.1348" y1="72.2188" x2="40.1348" y2="79.9999" gradientUnits="userSpaceOnUse">
<stop stop-color="white"/>
<stop offset="1" stop-color="white" stop-opacity="0"/>
</linearGradient>
<linearGradient id="paint1_linear_11_11" x1="40.135" y1="-0.00390625" x2="40.135" y2="31.0898" gradientUnits="userSpaceOnUse">
<stop stop-color="white" stop-opacity="0"/>
<stop offset="1" stop-color="white"/>
</linearGradient>
<linearGradient id="paint2_linear_11_11" x1="40.1348" y1="31.0898" x2="40.1348" y2="72.2187" gradientUnits="userSpaceOnUse">
<stop stop-color="white"/>
<stop offset="1" stop-color="white" stop-opacity="0"/>
</linearGradient>
<clipPath id="clip0_11_11">
<rect width="80" height="80" fill="white" transform="translate(0.134766)"/>
</clipPath>
</defs>
</svg>
